External Loads File
version=1
nRows=86
nColumns=13
Range=5.000000e-03-10 seconds
endheader
time 	forceRightX 	forceRightY 	forceRightZ 	pointRightX 	pointRightY 	pointRightZ 	forceLeftX 	forceLeftY 	forceLeftZ 	pointLeftX 	pointLeftY 	pointLeftZ 		
2.505000 -84.252187 282.076207 -0.000000 0.358943 0.493962 -0.127688 99.198096 298.280417 -0.000000 0.248338 0.156498 -0.363646
2.510000 -84.820779 286.985182 -0.000000 0.361032 0.492932 -0.127658 97.135312 289.504113 -0.000000 0.246299 0.157406 -0.363624
2.515000 -85.279104 292.350778 -0.000000 0.363076 0.491945 -0.127580 95.044147 280.444801 -0.000000 0.244359 0.158361 -0.363587
2.520000 -85.467479 298.282548 -0.000000 0.365053 0.490848 -0.127571 93.054768 270.875493 -0.000000 0.242356 0.159277 -0.363556
2.525000 -85.462630 304.785259 -0.000000 0.366977 0.489776 -0.127473 91.065601 260.668962 -0.000000 0.240450 0.160319 -0.363513
2.530000 -85.091888 311.925885 -0.000000 0.368930 0.488598 -0.127388 89.200881 249.663542 -0.000000 0.238531 0.161390 -0.363488
2.535000 -84.379304 319.710168 -0.000000 0.370927 0.487405 -0.127167 87.406209 237.823513 -0.000000 0.236616 0.162536 -0.363470
2.540000 -83.478113 328.084947 -0.000000 0.372821 0.486122 -0.127090 85.544776 225.226871 -0.000000 0.234722 0.163727 -0.363469
2.545000 -82.472895 336.998920 -0.000000 0.374657 0.484844 -0.126971 83.575980 212.031040 -0.000000 0.232849 0.164918 -0.363517
2.550000 -81.281568 346.442442 -0.000000 0.376600 0.483480 -0.126832 81.606786 198.453803 -0.000000 0.230989 0.166133 -0.363536
2.555000 -80.304558 356.282565 -0.000000 0.378344 0.482076 -0.126802 79.488988 184.870355 -0.000000 0.229145 0.167461 -0.363579
2.560000 -79.711563 366.416048 -0.000000 0.379966 0.480641 -0.126831 77.240703 171.565540 -0.000000 0.227357 0.168760 -0.363658
2.565000 -79.099667 376.816399 -0.000000 0.381760 0.479069 -0.126796 75.103975 158.655774 -0.000000 0.225515 0.170136 -0.363697
2.570000 -78.828586 387.239671 -0.000000 0.383535 0.477481 -0.126797 72.923714 146.373966 -0.000000 0.223706 0.171561 -0.363765
2.575000 -78.883120 397.493138 -0.000000 0.385321 0.475878 -0.126755 70.726509 134.828804 -0.000000 0.221899 0.173022 -0.363736
2.580000 -79.073045 407.411420 -0.000000 0.387287 0.474154 -0.126660 68.594426 124.066894 -0.000000 0.220051 0.174462 -0.363788
2.585000 -79.760562 416.722886 -0.000000 0.389154 0.472381 -0.126612 66.437676 114.216825 -0.000000 0.218200 0.175969 -0.363803
2.590000 -80.905247 425.243465 -0.000000 0.391027 0.470621 -0.126635 64.307095 105.344097 -0.000000 0.216371 0.177573 -0.363764
2.595000 -82.325259 432.838929 -0.000000 0.392930 0.468762 -0.126628 62.269898 97.505873 -0.000000 0.214481 0.179230 -0.363733
2.600000 -83.998324 439.376152 -0.000000 0.394868 0.466794 -0.126594 60.328730 90.772466 -0.000000 0.212574 0.180954 -0.363588
2.605000 -85.667203 444.801172 -0.000000 0.396819 0.464790 -0.126563 58.519028 85.155161 -0.000000 0.210400 0.182749 -0.362734
2.610000 -88.042042 448.926165 -0.000000 0.398767 0.462822 -0.126566 56.690996 80.765283 -0.000000 0.208554 0.184559 -0.362683
2.615000 -90.702402 451.860175 -0.000000 0.400622 0.460827 -0.126692 54.918345 77.527783 -0.000000 0.206709 0.186456 -0.362565
2.620000 -93.413422 453.769042 -0.000000 0.402610 0.458795 -0.126678 53.224508 75.353673 -0.000000 0.204840 0.188288 -0.362533
2.625000 -95.939585 454.892338 -0.000000 0.404779 0.456708 -0.126465 51.640906 74.120866 -0.000000 0.202979 0.190229 -0.362467
2.630000 -98.728125 455.366021 -0.000000 0.406744 0.454552 -0.126428 50.114027 73.763265 -0.000000 0.201186 0.192207 -0.362443
2.635000 -101.597658 455.469232 -0.000000 0.408559 0.452393 -0.126452 48.709449 74.120694 -0.000000 0.199389 0.194214 -0.362411
2.640000 -104.170456 455.525745 -0.000000 0.410435 0.450153 -0.126399 47.520880 74.991863 -0.000000 0.197621 0.196279 -0.362366
2.645000 -106.618784 455.718796 -0.000000 0.412268 0.447907 -0.126394 46.543265 76.234810 -0.000000 0.195869 0.198319 -0.362351
2.650000 -107.540236 456.567621 -0.000000 0.414081 0.444288 -0.126471 46.022743 77.588315 -0.000000 0.194122 0.200389 -0.362358
2.655000 -109.145263 457.703567 -0.000000 0.415902 0.441874 -0.126776 45.576249 79.227980 -0.000000 0.192401 0.202601 -0.362356
2.660000 -110.550130 459.441690 -0.000000 0.417553 0.439477 -0.126803 45.329696 81.089134 -0.000000 0.190688 0.204910 -0.362338
2.665000 -111.570032 461.891700 -0.000000 0.419165 0.436916 -0.126644 45.305272 83.231380 -0.000000 0.188965 0.207184 -0.362310
2.670000 -112.325939 465.039033 -0.000000 0.420753 0.434355 -0.126552 45.493821 85.761338 -0.000000 0.187246 0.209518 -0.362303
2.675000 -113.036485 468.794567 -0.000000 0.422239 0.432051 -0.126528 45.884289 88.782410 -0.000000 0.185501 0.212067 -0.362298
2.680000 -114.255916 472.944043 -0.000000 0.423728 0.430196 -0.126496 46.387812 92.392712 -0.000000 0.183782 0.214531 -0.362277
2.685000 -114.635824 477.697722 -0.000000 0.425113 0.427608 -0.126496 47.251098 96.442732 -0.000000 0.182081 0.217121 -0.362237
2.690000 -114.718460 482.788209 -0.000000 0.426595 0.424781 -0.126430 48.333349 100.894139 -0.000000 0.180410 0.219707 -0.362189
2.695000 -115.194939 487.898062 -0.000000 0.427848 0.422004 -0.126451 49.435800 105.657112 -0.000000 0.178781 0.222318 -0.362169
2.700000 -115.643302 492.943425 -0.000000 0.429070 0.419202 -0.126334 50.579185 110.483338 -0.000000 0.177144 0.225055 -0.362111
2.705000 -116.217542 497.677455 -0.000000 0.430236 0.416307 -0.126153 51.649053 115.156054 -0.000000 0.175560 0.227769 -0.362120
2.710000 -116.486528 502.004738 -0.000000 0.431575 0.413247 -0.126366 52.654911 119.390076 -0.000000 0.174031 0.230527 -0.362025
2.715000 -117.336043 505.570350 -0.000000 0.432383 0.410310 -0.126065 53.306256 123.055126 -0.000000 0.172518 0.233371 -0.362063
2.720000 -117.543850 508.543701 -0.000000 0.433696 0.407319 -0.126096 53.848363 125.845763 -0.000000 0.171017 0.236311 -0.362038
2.725000 -117.979910 510.609871 -0.000000 0.434833 0.404327 -0.126070 54.042256 127.745935 -0.000000 0.169568 0.239205 -0.362026
2.730000 -118.203649 511.751637 -0.000000 0.435957 0.401331 -0.126132 53.968946 128.682874 -0.000000 0.168176 0.242237 -0.362043
2.735000 -118.124440 511.901178 -0.000000 0.437133 0.398286 -0.126141 53.635641 128.696521 -0.000000 0.166829 0.245346 -0.361992
2.740000 -118.253418 510.937261 -0.000000 0.438082 0.395246 -0.126122 52.942077 127.940968 -0.000000 0.165503 0.248378 -0.361992
2.745000 -118.015443 509.105840 -0.000000 0.439203 0.392110 -0.126249 52.114217 126.480276 -0.000000 0.164322 0.251492 -0.361986
2.750000 -117.686621 506.554169 -0.000000 0.440376 0.388997 -0.126291 51.199670 124.471491 -0.000000 0.163176 0.254633 -0.362005
2.755000 -117.321815 503.536315 -0.000000 0.441373 0.385847 -0.126341 50.313536 122.038293 -0.000000 0.162098 0.257810 -0.361985
2.760000 -116.267555 500.498592 -0.000000 0.442910 0.382632 -0.126682 49.728629 119.212035 -0.000000 0.161061 0.261066 -0.361956
2.765000 -115.957275 497.410538 -0.000000 0.443257 0.379414 -0.126369 49.194291 116.203294 -0.000000 0.160141 0.264238 -0.361981
2.770000 -114.716582 494.944828 -0.000000 0.444173 0.376114 -0.126408 49.165332 112.887318 -0.000000 0.159240 0.267548 -0.361982
2.775000 -113.228911 493.173539 -0.000000 0.445030 0.372802 -0.126446 49.483660 109.360550 -0.000000 0.158417 0.270890 -0.361956
2.780000 -111.541189 492.251317 -0.000000 0.445701 0.369487 -0.126492 50.084496 105.672344 -0.000000 0.157621 0.274258 -0.361968
2.785000 -109.676468 492.266394 -0.000000 0.446262 0.366145 -0.126547 50.873006 101.904009 -0.000000 0.156907 0.277600 -0.361976
2.790000 -107.213039 493.324922 -0.000000 0.446876 0.362696 -0.126657 51.834174 98.116229 -0.000000 0.156211 0.281058 -0.361868
2.795000 -104.671328 495.242359 -0.000000 0.447295 0.359186 -0.126770 52.764258 94.483180 -0.000000 0.155643 0.284486 -0.361955
2.800000 -101.856748 497.919126 -0.000000 0.447705 0.355663 -0.126805 53.620124 91.124268 -0.000000 0.155055 0.288002 -0.361942
2.805000 -98.910977 501.128091 -0.000000 0.448013 0.352113 -0.126770 54.317598 88.208886 -0.000000 0.154552 0.291570 -0.361848
2.810000 -96.124268 504.586222 -0.000000 0.448301 0.348618 -0.126725 54.787985 85.902949 -0.000000 0.154150 0.295071 -0.361809
2.815000 -92.993315 508.154361 -0.000000 0.448529 0.345008 -0.126699 55.131404 84.220028 -0.000000 0.153794 0.298620 -0.361801
2.820000 -89.617224 511.576268 -0.000000 0.448602 0.341350 -0.126613 55.348336 83.159137 -0.000000 0.153494 0.302214 -0.361789
2.825000 -86.149170 514.607549 -0.000000 0.448632 0.337724 -0.126611 55.433697 82.670302 -0.000000 0.153263 0.305833 -0.361820
2.830000 -82.911631 517.022732 -0.000000 0.448673 0.334229 -0.126613 55.380044 82.697187 -0.000000 0.153113 0.309431 -0.361849
2.835000 -79.458509 518.781409 -0.000000 0.448720 0.330556 -0.126657 55.330262 83.093836 -0.000000 0.153040 0.313023 -0.361828
2.840000 -76.176380 519.762475 -0.000000 0.448689 0.326918 -0.126654 55.292121 83.804314 -0.000000 0.152982 0.316647 -0.361809
2.845000 -73.085305 519.947614 -0.000000 0.448586 0.323339 -0.126687 55.308261 84.741769 -0.000000 0.152966 0.320333 -0.361784
2.850000 -70.220045 519.356669 -0.000000 0.448449 0.319651 -0.126686 55.393285 85.837363 -0.000000 0.153038 0.323888 -0.361801
2.855000 -67.696603 518.049812 -0.000000 0.448338 0.316123 -0.126689 55.521907 87.042436 -0.000000 0.153197 0.327504 -0.361821
2.860000 -64.730602 516.256215 -0.000000 0.448174 0.312392 -0.126559 55.799359 88.209713 -0.000000 0.153424 0.331256 -0.361875
2.865000 -62.196354 514.026590 -0.000000 0.448039 0.308744 -0.126398 56.044521 89.366140 -0.000000 0.153669 0.334918 -0.361844
2.870000 -59.880072 511.568744 -0.000000 0.447520 0.305221 -0.126716 56.269813 90.421369 -0.000000 0.154064 0.338564 -0.361845
2.875000 -57.538340 509.087527 -0.000000 0.447165 0.301655 -0.126689 56.518867 91.272392 -0.000000 0.154499 0.342207 -0.361839
2.880000 -54.814651 506.769921 -0.000000 0.446821 0.297869 -0.126760 56.870636 91.782967 -0.000000 0.155075 0.345844 -0.361934
2.885000 -50.611657 504.803138 -0.000000 0.446275 0.293200 -0.126836 57.529178 91.708448 -0.000000 0.155699 0.349438 -0.361944
2.890000 -48.168802 502.838770 -0.000000 0.445871 0.289654 -0.126887 57.886304 91.283269 -0.000000 0.156515 0.353066 -0.361985
2.895000 -45.756322 500.978148 -0.000000 0.445303 0.286215 -0.126914 58.213189 90.180277 -0.000000 0.157373 0.356680 -0.361935
2.900000 -42.864191 499.162458 -0.000000 0.444694 0.282629 -0.126913 58.529152 88.220970 -0.000000 0.158343 0.360322 -0.361983
2.905000 -39.605573 497.274178 -0.000000 0.444149 0.278932 -0.127139 58.705221 85.329382 -0.000000 0.159417 0.363977 -0.362058
2.910000 -36.260710 495.187223 -0.000000 0.443415 0.275345 -0.127165 58.564006 81.503666 -0.000000 0.160641 0.367563 -0.362078
2.915000 -32.147504 492.853355 -0.000000 0.442620 0.271791 -0.127250 58.090064 76.703688 -0.000000 0.161962 0.371445 -0.362123
2.920000 -28.158628 490.136035 -0.000000 0.441533 0.268249 -0.127290 57.047044 71.153069 -0.000000 0.163391 0.374901 -0.362145
2.925000 -23.848059 487.025942 -0.000000 0.440604 0.264721 -0.127352 55.477439 64.973544 -0.000000 0.164884 0.378414 -0.362140
2.930000 -18.869632 483.518948 -0.000000 0.439424 0.261153 -0.127403 53.461452 58.336050 -0.000000 0.166646 0.381984 -0.362250
